# xmcd
#
# Track frame offsets:
#	150
#	23589
#	35787
#	50266
#	60885
#	74081
#	85760
#	99575
#	116122
#	132907
#	142583
#	156945
#	170838
#	186069
#	202067
#
# Disc length: 2939 seconds
#
# Revision: 1
# Processed by: cddbd v1.5.2PL0 Copyright (c) Steve Scherf et al.
# Submitted via: audiograbber 1.83.01
#
DISCID=d10b790f
DTITLE=Highway Shadows - Ghostriders
DYEAR=2017
DGENRE=Country
TTITLE0=Ghostriders In The Sky
TTITLE1=Ring Of Fire
TTITLE2=C'est La Vie (You Never Can Tell)
TTITLE3=Oh Lonesome Me
TTITLE4=Shame On Me
TTITLE5=Cherokee Boogie
TTITLE6=Cattle Call
TTITLE7=Find My Love
TTITLE8=Wake Me Up
TTITLE9=Cry Cry Cry
TTITLE10=Diggy Liggy Lo
TTITLE11=Tulsa Time
TTITLE12=Down At The Twist And Shout
TTITLE13=Spiel mir das Lied vom Tod
TTITLE14=The Rose
EXTD=Nach 43 Jahren Live-Music erschien im April 2017 die Abschieds-CD der ‰uﬂe
EXTD=rst beliebten Country-Band "Highway Shadows".
EXTT0=
EXTT1=
EXTT2=
EXTT3=
EXTT4=
EXTT5=
EXTT6=
EXTT7=
EXTT8=
EXTT9=
EXTT10=
EXTT11=
EXTT12=
EXTT13=
EXTT14=
PLAYORDER=
